{
  "asset": {
    "generator": "glTF-Transform v4.3.0",
    "version": "2.0"
  },
  "accessors": [
    {
      "type": "SCALAR",
      "componentType": 5123,
      "count": 46356,
      "bufferView": 0,
      "byteOffset": 0
    },
    {
      "type": "VEC3",
      "componentType": 5126,
      "count": 14556,
      "max": [
        0.9424954056739807,
        0.8128451108932495,
        0.900973916053772
      ],
      "min": [
        -0.9474585652351379,
        -1.18715500831604,
        -0.9009949564933777
      ],
      "bufferView": 1,
      "byteOffset": 0
    },
    {
      "type": "VEC3",
      "componentType": 5126,
      "count": 14556,
      "bufferView": 1,
      "byteOffset": 12
    },
    {
      "type": "VEC2",
      "componentType": 5126,
      "count": 14556,
      "bufferView": 1,
      "byteOffset": 24
    }
  ],
  "bufferViews": [
    {
      "buffer": 0,
      "byteOffset": 0,
      "byteLength": 92712,
      "target": 34963
    },
    {
      "buffer": 0,
      "byteOffset": 92712,
      "byteLength": 465792,
      "byteStride": 32,
      "target": 34962
    }
  ],
  "samplers": [
    {
      "wrapS": 10497,
      "wrapT": 10497
    }
  ],
  "textures": [
    {
      "source": 0,
      "sampler": 0,
      "extensions": {
        "MSFT_texture_dds": {
          "source": 0
        }
      }
    },
    {
      "source": 2,
      "sampler": 0,
      "extensions": {
        "MSFT_texture_dds": {
          "source": 2
        }
      }
    },
    {
      "source": 4,
      "sampler": 0,
      "extensions": {
        "MSFT_texture_dds": {
          "source": 4
        }
      }
    },
    {
      "source": 3,
      "sampler": 0,
      "extensions": {
        "MSFT_texture_dds": {
          "source": 3
        }
      }
    },
    {
      "source": 1,
      "sampler": 0,
      "extensions": {
        "MSFT_texture_dds": {
          "source": 1
        }
      }
    }
  ],
  "images": [
    {
      "uri": "baseColor_1.dds",
      "mimeType": "image/vnd-ms.dds"
    },
    {
      "uri": "metallicRoughness_1.dds",
      "mimeType": "image/vnd-ms.dds"
    },
    {
      "uri": "emissive_1.dds",
      "mimeType": "image/vnd-ms.dds"
    },
    {
      "uri": "occlusion_1.dds",
      "mimeType": "image/vnd-ms.dds"
    },
    {
      "uri": "normal_1.dds",
      "mimeType": "image/vnd-ms.dds"
    }
  ],
  "buffers": [
    {
      "uri": "helmet.bin",
      "byteLength": 558504
    }
  ],
  "materials": [
    {
      "name": "Material_MR",
      "pbrMetallicRoughness": {
        "baseColorTexture": {
          "index": 0
        },
        "metallicRoughnessTexture": {
          "index": 4
        }
      },
      "emissiveFactor": [
        1,
        1,
        1
      ],
      "emissiveTexture": {
        "index": 1
      },
      "normalTexture": {
        "index": 2
      },
      "occlusionTexture": {
        "index": 3
      }
    }
  ],
  "meshes": [
    {
      "name": "mesh_helmet_LP_13930damagedHelmet",
      "primitives": [
        {
          "attributes": {
            "NORMAL": 2,
            "POSITION": 1,
            "TEXCOORD_0": 3
          },
          "mode": 4,
          "material": 0,
          "indices": 0
        }
      ]
    }
  ],
  "nodes": [
    {
      "name": "node_damagedHelmet_-6514",
      "rotation": [
        0.7071068286895752,
        0,
        0,
        0.7071068286895752
      ],
      "mesh": 0
    }
  ],
  "scenes": [
    {
      "name": "Scene",
      "nodes": [
        0
      ]
    }
  ],
  "scene": 0,
  "extensionsUsed": [
    "MSFT_texture_dds"
  ],
  "extensionsRequired": [
    "MSFT_texture_dds"
  ]
}